<!DOCTYPE svg PUBLIC "-//W3C//DTD SVG 1.1//EN" "http://www.w3.org/Graphics/SVG/1.1/DTD/svg11.dtd">
<!-- Uploaded to: SVG Repo, www.svgrepo.com, Transformed by: SVG Repo Mixer Tools -->
<svg fill="#91c1ee" width="128px" height="128px" viewBox="0 0 1024.00 1024.00" xmlns="http://www.w3.org/2000/svg" class="icon" stroke="#91c1ee" transform="rotate(0)matrix(1, 0, 0, 1, 0, 0)" stroke-width="0.01024">
<g id="SVGRepo_bgCarrier" stroke-width="0"/>
<g id="SVGRepo_tracerCarrier" stroke-linecap="round" stroke-linejoin="round" stroke="#CCCCCC" stroke-width="4.096"/>
<g id="SVGRepo_iconCarrier"> <path d="M854.6 288.6L639.4 73.4c-6-6-14.1-9.4-22.6-9.4H192c-17.7 0-32 14.3-32 32v832c0 17.7 14.3 32 32 32h640c17.7 0 32-14.3 32-32V311.3c0-8.5-3.4-16.7-9.4-22.7zM790.2 326H602V137.8L790.2 326zm1.8 562H232V136h302v216a42 42 0 0 0 42 42h216v494zM544 472c0-4.4-3.6-8-8-8h-48c-4.4 0-8 3.6-8 8v108H372c-4.4 0-8 3.6-8 8v48c0 4.4 3.6 8 8 8h108v108c0 4.4 3.6 8 8 8h48c4.4 0 8-3.6 8-8V644h108c4.4 0 8-3.6 8-8v-48c0-4.4-3.6-8-8-8H544V472z"/> </g>
</svg>