<svg xmlns="http://www.w3.org/2000/svg" width="500" height="511" viewBox="0 0 500 511">
  <defs>
    <style>
      .cls-1, .cls-3 {
        fill: #fff;
      }

      .cls-2, .cls-3 {
        fill-rule: evenodd;
      }
    </style>
  </defs>
  <rect id="Прямоугольник_2" data-name="Прямоугольник 2" width="500" height="511"/>
  <rect id="Прямоугольник_1" data-name="Прямоугольник 1" class="cls-1" x="25" y="28" width="451" height="410"/>
  <path id="OMDB" class="cls-2" d="M36.889,286.5C12.805,305.115,3.74,342.786,43.352,394.032S121.705,446,145.788,427.38s33.15-56.288-6.463-107.534S60.973,267.882,36.889,286.5Zm35.255,85.277c-9.378-12.132-33.866-46.431-15.939-60.288s44.95,18.482,54.328,30.614c8.4,10.865,33.866,46.431,15.939,60.289S80.543,382.641,72.144,371.776ZM111,232.683l93.588,145.774,28.973-22.4L161.54,254.655l0.362-.28,1.959,2.535L191.9,283.832l63.749,55.152,20.825-16.1-38.382-73.6-21.689-37.04,0.362-.28,82.525,93.288L327,283.835,207.154,158.358l-36.216,27.994,51.423,88.98-0.362.28-75.507-70.363Zm257.466,19.1c42.554-32.894,35.748-72.76,5.653-111.693C315.191,63.854,264.012,114.407,259.3,118.046l-20.462,15.817L344.382,270.4Zm-15.86-26.5-68.027-88.006c22.273-17.217,48.982,6.108,62.419,23.492C360.156,177.786,375.176,209.567,352.606,225.278Zm99.88-104.687c8.818,11.408,8.639,24.275-2.646,32.13L421.286,115.78C431.689,107.16,444.227,109.907,452.486,120.591Zm14.126,55.325c24.628-19.037,35.728-45.842,14.872-72.823-9.1-11.77-25.91-21.918-41.336-18.672,4.822-14.72,2.21-27.454-7.168-39.587-8.818-11.408-23.086-19.761-37.739-20.006-14.151-.343-23.485,6.293-33.987,14.411L334.816,59.677l105.54,136.535Zm-58.745-110.8c7.979,10.322,7.322,21.822-2.818,29.66L379.294,61.456C389.2,52.934,400.169,55.155,407.867,65.114Z"/>
  <path id="SOFT_PRODUCTS" data-name="SOFT PRODUCTS" class="cls-3" d="M51.443,451.665a23.781,23.781,0,0,0-9.826-2.082c-9.528,0-14.664,5.795-14.664,12.489,0,6.188,3.945,9.339,10.347,12.6,3.126,1.688,6.55,2.926,6.55,6.189,0,2.812-2.829,4.613-6.4,4.613a17.362,17.362,0,0,1-8.411-2.251v7.989a21.429,21.429,0,0,0,9.528,2.138c10.421,0,16.153-5.682,16.153-13.221,0-11.476-16.9-11.87-16.9-18.846,0-2.587,2.159-4.163,5.583-4.163a14.85,14.85,0,0,1,8.039,2.7v-8.157Zm27.4-2.082c-9.9,0-19.726,5.963-19.726,21.884s9.826,21.884,19.726,21.884,19.725-5.964,19.725-21.884S88.739,449.583,78.839,449.583Zm-7.89,21.884c0-3.769.521-14.12,7.89-14.12s7.89,10.351,7.89,14.12c0,3.375-.521,14.12-7.89,14.12S70.949,474.842,70.949,471.467Zm33.5-21.209v42.418H115.54V475.067h10.2v-7.876h-10.2v-9.057h11.314v-7.876h-22.4Zm26.5,0v7.876h8.709v34.542h11.091V458.134h8.783v-7.876H130.952Zm62.977,42.418v-17.5l2.457,0.112c10.272,0,17.046-4.556,17.046-12.489,0-13.67-16.674-12.545-19.056-12.545H182.838v42.418h11.091Zm0-35.5h2.085c4.764,0,6.327,2.475,6.327,5.513,0,4.332-3.052,5.851-8.412,5.682V457.178Zm36.255,35.5V473.1h0.149l9.751,19.578h11.687l-9.751-19.3c5.508-2.307,7.964-6.3,7.964-10.97,0-11.589-12.654-12.152-19.725-12.152H219.093v42.418h11.091Zm0-35.5h1.489c5.583-.225,7.518,2.25,7.518,5.288,0,3.488-2.01,6.076-7.071,6.076l-1.936-.057V457.178Zm46.081-7.595c-9.9,0-19.726,5.963-19.726,21.884s9.826,21.884,19.726,21.884,19.726-5.964,19.726-21.884S286.165,449.583,276.265,449.583Zm-7.89,21.884c0-3.769.521-14.12,7.89-14.12s7.89,10.351,7.89,14.12c0,3.375-.521,14.12-7.89,14.12S268.375,474.842,268.375,471.467Zm43.4,21.209c17.493,0,23.671-8.776,23.671-20.872,0-23.684-23.224-21.546-25.159-21.546h-8.412v42.418h9.9Zm1.191-7.539V457.8c9.156,0,11.389,8.551,11.389,13.951C324.355,477.036,321.9,485.475,312.966,485.137Zm28.068-34.879v31.5c0,7.932,6.178,11.589,16.524,11.589,16,0,16.674-7.651,16.674-12.152V450.258H363.141v29.254c-0.074,3.15-.074,6.244-5.508,6.244-6.03,0-5.508-4.838-5.508-8.045V450.258H341.034Zm68.783,0.282a21.32,21.32,0,0,0-5.657-.788c-15.111,0-24.341,10.8-24.341,21.321,0,11.139,8.858,22.053,24.862,22.053a17.256,17.256,0,0,0,5.136-.732v-7.932a18.386,18.386,0,0,1-4.243.619c-9.677,0-13.92-7.763-13.92-14.064,0-6.526,4.243-13.22,13.994-13.22a20.949,20.949,0,0,1,4.169.45V450.54Zm2.832-.282v7.876h8.709v34.542h11.091V458.134h8.784v-7.876H412.649Zm56.723,1.407a23.775,23.775,0,0,0-9.825-2.082c-9.528,0-14.664,5.795-14.664,12.489,0,6.188,3.945,9.339,10.347,12.6,3.126,1.688,6.55,2.926,6.55,6.189,0,2.812-2.829,4.613-6.4,4.613a17.361,17.361,0,0,1-8.411-2.251v7.989a21.432,21.432,0,0,0,9.528,2.138c10.421,0,16.153-5.682,16.153-13.221,0-11.476-16.9-11.87-16.9-18.846,0-2.587,2.158-4.163,5.582-4.163a14.849,14.849,0,0,1,8.039,2.7v-8.157Z"/>
</svg>
